<?xml version="1.0" encoding="utf-8"?>
<!-- Generator: Adobe Illustrator 16.0.0, SVG Export Plug-In . SVG Version: 6.00 Build 0)  -->
<!DOCTYPE svg PUBLIC "-//W3C//DTD SVG 1.1//EN" "http://www.w3.org/Graphics/SVG/1.1/DTD/svg11.dtd">
<svg version="1.1" id="Layer_1" xmlns="http://www.w3.org/2000/svg" xmlns:xlink="http://www.w3.org/1999/xlink" x="0px" y="0px"
	 width="130px" height="130px" viewBox="0 0 130 130" enable-background="new 0 0 130 130" xml:space="preserve">
<path fill="#545554" d="M114.539,0.006H15.453C6.928,0.006,0,6.896,0,15.421v99.152c0,8.515,6.928,15.421,15.453,15.421h99.086
	c8.543,0,15.461-6.906,15.461-15.421V15.421C130,6.896,123.082,0.006,114.539,0.006z M90.303,18.436
	c0-2.004,1.631-3.623,3.635-3.623h17.576c2.01,0,3.639,1.619,3.639,3.623v17.543c0,2.005-1.629,3.624-3.639,3.624H93.938
	c-2.004,0-3.635-1.619-3.635-3.624V18.436z M65.145,40.205c13.812,0,25.012,11.166,25.012,24.946
	c0,13.773-11.199,24.939-25.012,24.939c-13.797,0-24.984-11.166-24.984-24.939C40.16,51.371,51.348,40.205,65.145,40.205z
	 M115.461,111.246c0,2.01-1.631,3.629-3.646,3.629H18.49c-2.004,0-3.645-1.619-3.645-3.629V54.71h12.166
	c-0.91,3.334-1.402,6.829-1.402,10.441c0,21.746,17.744,39.451,39.535,39.451c21.809,0,39.551-17.705,39.551-39.451
	c0-3.612-0.48-7.107-1.4-10.441h12.166V111.246z"/>
</svg>
