<?xml version="1.0" encoding="utf-8"?>
<!-- Generator: Adobe Illustrator 16.0.0, SVG Export Plug-In . SVG Version: 6.00 Build 0)  -->
<!DOCTYPE svg PUBLIC "-//W3C//DTD SVG 1.1//EN" "http://www.w3.org/Graphics/SVG/1.1/DTD/svg11.dtd">
<svg version="1.1" id="Layer_1" xmlns="http://www.w3.org/2000/svg" xmlns:xlink="http://www.w3.org/1999/xlink" x="0px" y="0px"
	 width="130px" height="130px" viewBox="0 0 130 130" enable-background="new 0 0 130 130" xml:space="preserve">
<path fill="#545554" d="M108.03,0H21.976C9.845,0,0.001,9.838,0.001,21.971v86.065C0.001,120.168,9.845,130,21.976,130h42.137
	V77.055H50.216V59.177h13.896c0,0,0-11.675,0-14.293s-0.529-20.11,21.865-20.11c2.998,0,10.59,0,16.588,0c0,7.593,0,15.812,0,18.189
	c-4.49,0-10.123,0-12.418,0s-4.623,2.412-4.623,4.199c0,1.786,0,11.948,0,11.948s14.359,0,16.23,0
	c-0.652,9.173-1.992,17.944-1.992,17.944H85.446V130h22.584c12.133,0,21.971-9.832,21.971-21.964V21.971
	C130.001,9.838,120.163,0,108.03,0z"/>
</svg>
