<?xml version="1.0" encoding="utf-8"?>
<!-- Generator: Adobe Illustrator 16.0.0, SVG Export Plug-In . SVG Version: 6.00 Build 0)  -->
<!DOCTYPE svg PUBLIC "-//W3C//DTD SVG 1.1//EN" "http://www.w3.org/Graphics/SVG/1.1/DTD/svg11.dtd">
<svg version="1.1" id="Layer_1" xmlns="http://www.w3.org/2000/svg" xmlns:xlink="http://www.w3.org/1999/xlink" x="0px" y="0px"
	 width="130px" height="130px" viewBox="0 0 130 130" enable-background="new 0 0 130 130" xml:space="preserve">
<path fill="#545554" d="M128.77,25.449c-4.693,2.081-9.732,3.487-15.033,4.12c5.4-3.238,9.561-8.367,11.506-14.477
	c-5.047,2.998-10.656,5.174-16.607,6.35c-4.775-5.093-11.578-8.268-19.104-8.268c-14.445,0-26.168,11.719-26.168,26.168
	c0,2.054,0.234,4.053,0.678,5.97c-21.744-1.094-41.02-11.51-53.928-27.344c-2.262,3.867-3.545,8.358-3.545,13.152
	c0,9.086,4.611,17.086,11.641,21.781c-4.287-0.136-8.322-1.316-11.859-3.274c0,0.108,0,0.222,0,0.33
	c0,12.677,9.027,23.255,21.004,25.661c-2.207,0.593-4.514,0.909-6.902,0.909c-1.691,0-3.328-0.158-4.92-0.461
	c3.32,10.393,12.988,17.954,24.441,18.167c-8.955,7.02-20.234,11.203-32.5,11.203c-2.117,0-4.197-0.122-6.242-0.362
	c11.578,7.417,25.326,11.75,40.107,11.75c48.131,0,74.451-39.867,74.451-74.447c0-1.131-0.027-2.257-0.08-3.383
	C120.828,35.305,125.26,30.695,128.77,25.449z"/>
</svg>
