<?xml version="1.0" encoding="utf-8"?>
<!-- Generator: Adobe Illustrator 16.0.0, SVG Export Plug-In . SVG Version: 6.00 Build 0)  -->
<!DOCTYPE svg PUBLIC "-//W3C//DTD SVG 1.1//EN" "http://www.w3.org/Graphics/SVG/1.1/DTD/svg11.dtd">
<svg version="1.1" id="Layer_1" xmlns="http://www.w3.org/2000/svg" xmlns:xlink="http://www.w3.org/1999/xlink" x="0px" y="0px"
	 width="130px" height="130px" viewBox="0 0 130 130" enable-background="new 0 0 130 130" xml:space="preserve">
<g>
	<path fill="#545554" d="M117.234,95.667H12.77C5.73,95.667,0,89.946,0,82.905V12.631C0,5.59,5.73-0.132,12.77-0.132h104.465
		C124.269-0.132,130,5.59,130,12.631v70.274C130,89.946,124.269,95.667,117.234,95.667z M12.77,6.188
		c-3.554,0-6.441,2.889-6.441,6.442v70.274c0,3.551,2.888,6.443,6.441,6.443h104.465c3.549,0,6.437-2.893,6.437-6.443V12.631
		c0-3.554-2.888-6.442-6.437-6.442H12.77z"/>
	<path fill="#545554" d="M105.063,84.06H24.936c-5.147,0-9.337-4.189-9.337-9.338v-53.91c0-5.145,4.189-9.335,9.337-9.335h80.128
		c5.152,0,9.338,4.19,9.338,9.335v53.91C114.401,79.87,110.216,84.06,105.063,84.06z M24.936,15.429
		c-2.97,0-5.386,2.416-5.386,5.383v53.91c0,2.965,2.416,5.387,5.386,5.387h80.128c2.975,0,5.386-2.422,5.386-5.387v-53.91
		c0-2.967-2.411-5.383-5.386-5.383H24.936z"/>
	<path fill="#545554" d="M104.835,130.132H25.164c-1.75,0-3.159-1.415-3.159-3.155v-5.474c0-5.405,4.395-9.799,9.8-9.799h66.395
		c5.4,0,9.795,4.394,9.795,9.799v5.474C107.994,128.717,106.585,130.132,104.835,130.132z M28.324,123.817h73.351v-2.314
		c0-1.915-1.565-3.48-3.476-3.48H31.805c-1.915,0-3.48,1.565-3.48,3.48V123.817z"/>
	<path fill="#545554" d="M80.739,92.511v7.541c0,0.764-0.646,1.41-1.41,1.41H50.67c-0.769,0-1.41-0.646-1.41-1.41v-7.541h-6.324
		v7.541c0,4.264,3.471,7.731,7.734,7.731h28.659c4.269,0,7.744-3.468,7.744-7.731v-7.541H80.739z"/>
	<path fill="#545554" d="M65,118.022c-1.745,0-3.165-1.419-3.165-3.159v-9.313c0-1.75,1.42-3.16,3.165-3.16
		c1.744,0,3.164,1.41,3.164,3.16v9.313C68.164,116.604,66.744,118.022,65,118.022z"/>
</g>
</svg>
