<?xml version="1.0" encoding="utf-8"?>
<!-- Generator: Adobe Illustrator 16.0.0, SVG Export Plug-In . SVG Version: 6.00 Build 0)  -->
<!DOCTYPE svg PUBLIC "-//W3C//DTD SVG 1.1//EN" "http://www.w3.org/Graphics/SVG/1.1/DTD/svg11.dtd">
<svg version="1.1" id="Layer_1" xmlns="http://www.w3.org/2000/svg" xmlns:xlink="http://www.w3.org/1999/xlink" x="0px" y="0px"
	 width="130px" height="130px" viewBox="0 0 130 130" enable-background="new 0 0 130 130" xml:space="preserve">
<path fill="#B3B3B0" d="M34.131,106.329c0-20.92,0-41.829,0-62.771c0.262-4.045,0.674-8.122,0.729-12.178
	c0.021-4.784,2.338-8.351,5.85-11.08c2.326-1.815,5.188-2.957,8.188-4.632c0.174-2.783,0.338-6.252,0.609-9.721
	c0.207-2.599,0.738-5.078,3.502-6.252c1.381,0,2.729,0,4.076,0c2.066,1.501,2.6,3.621,2.6,6.013c0,3.273,0,6.535,0,9.993
	c1.619,0.119,2.793,0.217,3.947,0.25c5.436,0.206,10.883,0.337,16.309,0.576c9.102,0.424,15.658,7.067,15.842,16.168
	c0.143,7.645,0.066,15.277,0.066,22.932c0,18.778-0.066,37.557-0.012,56.312c0.012,6.905-1.957,12.7-8.416,16.212
	c-1.533,0.827-3.195,1.446-4.816,2.153c-11.559,0-23.115,0-34.686,0c-0.467-0.163-0.924-0.37-1.414-0.5
	c-5.859-1.675-10.785-7.568-11.361-13.603C34.838,112.896,34.49,109.624,34.131,106.329z M65.664,61.76c0-0.011,0-0.032,0-0.065
	c6.98,0,13.939,0,20.898,0.033c1.836,0,2.598-0.87,2.619-2.61c0.033-9.253,0.066-18.517,0.195-27.792
	c0.033-2.022-0.836-2.664-2.729-2.664c-13.852,0.033-27.705,0.055-41.557-0.032c-2.426,0-3.371,0.892-3.328,3.272
	c0.195,8.928,0.359,17.865,0.359,26.781c0,2.436,1.076,3.077,3.131,3.077C52.072,61.76,58.879,61.76,65.664,61.76z"/>
</svg>
