<?xml version="1.0" encoding="utf-8"?>
<!-- Generator: Adobe Illustrator 16.0.0, SVG Export Plug-In . SVG Version: 6.00 Build 0)  -->
<!DOCTYPE svg PUBLIC "-//W3C//DTD SVG 1.1//EN" "http://www.w3.org/Graphics/SVG/1.1/DTD/svg11.dtd">
<svg version="1.1" id="Layer_1" xmlns="http://www.w3.org/2000/svg" xmlns:xlink="http://www.w3.org/1999/xlink" x="0px" y="0px"
	 width="130px" height="130px" viewBox="0 0 130 130" enable-background="new 0 0 130 130" xml:space="preserve">
<path fill="#545554" d="M72.729,129.995H56.41c-3.42,0-6.323-2.457-6.884-5.834l-1.913-11.779c-0.87-0.314-1.729-0.662-2.575-1.021
	l-9.492,7.215c-2.624,1.994-6.614,1.787-9.015-0.49l-11.846-11.211c-2.353-2.238-2.846-5.877-1.169-8.662l6.589-10.946
	c-0.777-1.618-1.469-3.29-2.072-4.995L5.468,79.503C2.246,78.79,0,75.997,0,72.698l0.009-16.316
	c0.005-3.445,2.469-6.331,5.851-6.877l12.812-2.09c0.512-1.279,1.072-2.555,1.687-3.787l-7.049-11.521
	c-1.695-2.773-1.217-6.406,1.111-8.662l11.792-11.292c2.362-2.302,6.334-2.556,9-0.546l10.729,8.051
	c0.493-0.195,1.005-0.392,1.513-0.568l2.072-13.244c0.561-3.383,3.464-5.84,6.884-5.84h16.318c3.247,0,6.111,2.305,6.808,5.473
	l2.985,13.595c0.464,0.167,0.923,0.331,1.382,0.513l11.482-7.793c2.647-1.785,6.392-1.488,8.705,0.708l11.846,11.22
	c2.498,2.367,2.898,6.141,0.962,8.982l-7.324,10.788c0.643,1.298,1.242,2.62,1.773,3.976l12.812,2.095
	c3.387,0.55,5.841,3.444,5.841,6.879v16.316c0,3.254-2.314,6.114-5.483,6.805l-12.565,2.751c-0.541,1.539-1.159,3.046-1.836,4.508
	l6.99,10.168c1.942,2.824,1.561,6.602-0.913,8.975l-11.782,11.294c-2.3,2.218-6.048,2.532-8.705,0.759l-10.256-6.879
	c-1.063,0.478-2.146,0.912-3.267,1.318l-2.646,12.067C78.84,127.69,75.976,129.995,72.729,129.995z M57.333,121.937h14.526
	l2.947-13.43c0.304-1.405,1.343-2.541,2.72-2.979c2.227-0.697,4.377-1.548,6.425-2.594c1.305-0.664,2.869-0.567,4.067,0.236
	l11.444,7.665l10.479-10.048l-7.812-11.363c-0.851-1.231-0.942-2.836-0.236-4.169c1.261-2.354,2.299-4.896,3.092-7.546
	c0.42-1.396,1.561-2.464,2.995-2.771l13.961-3.062l0.005-14.517l-14.222-2.324c-1.469-0.246-2.687-1.277-3.17-2.688
	c-0.845-2.526-1.894-4.854-3.184-7.12c-0.753-1.339-0.69-2.99,0.175-4.252l8.183-12.043l-10.546-9.988l-11.608,7.885
	c-0.125,0.151-0.246,0.287-0.387,0.402c-1.192,1.075-2.937,1.319-4.386,0.633c-1.633-0.763-3.339-1.352-5.077-1.898
	c-1.619-0.521-2.744-2.002-2.798-3.713L71.85,8.063H57.333l-2.348,14.386l-0.155-0.028c-0.362,1.5-1.294,3.14-2.574,3.545
	c-1.793,0.575-3.551,1.193-5.218,1.993c-1.497,0.708-3.241,0.452-4.454-0.655c-0.111-0.102-0.222-0.217-0.328-0.33L31.12,18.599
	L20.637,28.647l7.445,12.186c0.101,0.116,0.192,0.239,0.275,0.36c0.84,1.261,0.908,2.882,0.164,4.208
	c-1.223,2.186-2.256,4.514-3.077,6.912c-0.474,1.401-1.687,2.433-3.165,2.677L8.062,57.31l-0.01,14.517l13.971,3.067
	c1.421,0.316,2.565,1.382,2.99,2.777c0.807,2.74,1.903,5.383,3.242,7.854c0.666,1.251,0.633,2.77-0.102,3.988l-7.29,12.11
	l10.541,9.981l10.677-8.129c1.222-0.922,2.884-1.082,4.241-0.398c1.951,0.974,3.98,1.766,6.087,2.436
	c1.444,0.453,2.517,1.686,2.764,3.189L57.333,121.937z M65.42,89.507c-13.121,0-23.797-10.681-23.797-23.802
	c0-13.126,10.676-23.807,23.797-23.807c13.126,0,23.807,10.681,23.807,23.807C89.227,78.826,78.546,89.507,65.42,89.507z
	 M65.42,49.956c-8.677,0-15.739,7.062-15.739,15.749c0,8.679,7.062,15.744,15.739,15.744c8.686,0,15.749-7.065,15.749-15.744
	C81.169,57.019,74.105,49.956,65.42,49.956z"/>
</svg>
