<?xml version="1.0" encoding="utf-8"?>
<!-- Generator: Adobe Illustrator 16.0.0, SVG Export Plug-In . SVG Version: 6.00 Build 0)  -->
<!DOCTYPE svg PUBLIC "-//W3C//DTD SVG 1.1//EN" "http://www.w3.org/Graphics/SVG/1.1/DTD/svg11.dtd">
<svg version="1.1" id="Layer_1" xmlns="http://www.w3.org/2000/svg" xmlns:xlink="http://www.w3.org/1999/xlink" x="0px" y="0px"
	 width="130px" height="130px" viewBox="0 0 130 130" enable-background="new 0 0 130 130" xml:space="preserve">
<g>
	<path fill="#545554" d="M103.316,126.104H26.684c-14.717,0-26.685-11.973-26.685-26.688V50.44
		c0-14.711,11.968-26.686,26.685-26.686h3.787v-4.627c0-8.398,6.837-15.232,15.234-15.232h38.588c8.4,0,15.237,6.834,15.237,15.232
		v4.627h3.786C118.035,23.755,130,35.729,130,50.44v48.977C130,114.132,118.035,126.104,103.316,126.104z M26.684,31.011
		c-10.718,0-19.434,8.716-19.434,19.43v48.977c0,10.716,8.716,19.435,19.434,19.435h76.633c10.719,0,19.436-8.719,19.436-19.435
		V50.44c0-10.714-8.717-19.43-19.436-19.43H92.277V19.128c0-4.403-3.583-7.982-7.984-7.982H45.705c-4.398,0-7.984,3.579-7.984,7.982
		v11.883H26.684z"/>
	<path fill="#545554" d="M65,107.792c-18.117,0-32.861-14.742-32.861-32.862S46.883,42.065,65,42.065
		c18.119,0,32.863,14.744,32.863,32.864S83.119,107.792,65,107.792z M65,49.315c-14.123,0-25.611,11.488-25.611,25.614
		S50.877,100.544,65,100.544c14.124,0,25.61-11.488,25.61-25.614S79.124,49.315,65,49.315z"/>
	<path fill="#545554" d="M65,38.769c-7.216,0-13.083-5.867-13.083-13.086c0-7.217,5.867-13.084,13.083-13.084
		c7.217,0,13.084,5.867,13.084,13.084C78.084,32.901,72.217,38.769,65,38.769z M65,19.847c-3.219,0-5.838,2.614-5.838,5.836
		c0,3.22,2.619,5.834,5.838,5.834c3.221,0,5.836-2.614,5.836-5.834C70.836,22.461,68.221,19.847,65,19.847z"/>
	<path fill="#545554" d="M65,92.198c-9.225,0-16.73-7.51-16.73-16.732S55.775,58.732,65,58.732c9.226,0,16.729,7.511,16.729,16.733
		S74.226,92.198,65,92.198z M65,65.989c-5.228,0-9.479,4.248-9.479,9.477c0,5.228,4.252,9.484,9.479,9.484
		c5.227,0,9.479-4.257,9.479-9.484C74.479,70.237,70.227,65.989,65,65.989z"/>
</g>
</svg>
