<?xml version="1.0" encoding="utf-8"?>
<!-- Generator: Adobe Illustrator 16.0.0, SVG Export Plug-In . SVG Version: 6.00 Build 0)  -->
<!DOCTYPE svg PUBLIC "-//W3C//DTD SVG 1.1//EN" "http://www.w3.org/Graphics/SVG/1.1/DTD/svg11.dtd">
<svg version="1.1" id="Layer_1" xmlns="http://www.w3.org/2000/svg" xmlns:xlink="http://www.w3.org/1999/xlink" x="0px" y="0px"
	 width="130px" height="130px" viewBox="0 0 130 130" enable-background="new 0 0 130 130" xml:space="preserve">
<g id="UKnmVe.tif_2_">
	<g>
		<path fill-rule="evenodd" clip-rule="evenodd" fill="#232425" d="M131.033,33.02c-3.467,0.923-6.888,2.14-10.411,2.711
			c-8.825,1.427-17.532,0.662-26.022-2.206c-0.285-0.097-0.568-0.197-0.839-0.327c-0.106-0.05-0.173-0.18-0.469-0.52
			c6.134-2.465,12.409-3.388,18.832-3.434c6.489-0.048,12.796,1.067,18.909,3.259C131.033,32.676,131.033,32.849,131.033,33.02z"/>
		<path fill-rule="evenodd" clip-rule="evenodd" fill="#232425" d="M-1.033,32.503c8.361-2.979,16.961-4.01,25.741-2.777
			c3.675,0.512,7.269,1.636,10.894,2.49c0.244,0.059,0.479,0.182,0.698,0.312c0.095,0.056,0.13,0.205,0.271,0.445
			c-0.352,0.176-0.662,0.379-1,0.491c-11.891,3.934-23.785,3.939-35.674-0.014c-0.32-0.108-0.619-0.286-0.93-0.432
			C-1.033,32.849-1.033,32.676-1.033,32.503z"/>
		<path fill-rule="evenodd" clip-rule="evenodd" fill="#232425" d="M110.725,47.665c0-2.88,0-5.697,0-8.598c1.051,0,1.963,0,2.975,0
			c0,2.878,0,5.7,0,8.556c0.257,0.111,0.437,0.221,0.631,0.268c2.963,0.735,4.228,2.353,3.667,5.322
			c-0.388,2.071-0.954,4.229-1.99,6.037c-1.935,3.384-5.521,3.265-7.649-0.022c-1.402-2.164-2.089-5.146-1.902-8.41
			c-0.353-0.035-0.712-0.099-1.071-0.101c-6.147-0.005-12.292,0.013-18.44-0.018c-0.836-0.005-1.332,0.195-1.663,1.023
			c-0.507,1.269-1.159,2.48-1.79,3.805c0.388,0.259,0.732,0.49,1.074,0.723c6.719,4.485,10.43,10.724,10.631,18.83
			c0.158,6.313,0.038,12.636,0.049,18.954c0.004,0.887-0.12,1.726-1.24,1.712c-1.131-0.019-1.198-0.881-1.191-1.755
			c0.012-1.793,0.004-3.586,0.004-5.441c-0.859-0.045-1.574-0.08-2.367-0.121c0-1.956,0-3.865,0-5.842
			c0.775-0.043,1.49-0.08,2.188-0.117c1.963-9.386-1.656-19.004-8.945-23.866c-0.67-0.447-1.227-0.853-2.188-0.37
			c-0.698,0.353-1.682,0.155-2.541,0.166c-1.289,0.018-2.579,0.027-3.869-0.008c-2.1-0.058-3.959,0.173-5.908,1.415
			c-3.178,2.034-6.546,1.503-9.657-0.668c-0.581-0.405-1.37-0.68-2.075-0.704c-2.578-0.085-5.158-0.025-7.736-0.046
			c-0.508-0.004-1.016-0.162-1.522-0.173c-0.493-0.011-1.1-0.092-1.466,0.148c-5.923,3.853-9.08,9.357-9.495,16.383
			c-0.147,2.522-0.024,5.06-0.024,7.695c0.796,0.053,1.543,0.102,2.35,0.156c0,1.945,0,3.821,0,5.816
			c-0.768,0.047-1.516,0.09-2.382,0.14c0,1.868-0.015,3.663,0.007,5.458c0.011,0.891-0.095,1.733-1.208,1.736
			c-1.117,0.006-1.223-0.842-1.223-1.729c0.015-6.274-0.095-12.554,0.05-18.827c0.193-8.318,4.009-14.665,10.971-19.161
			c0.18-0.116,0.363-0.226,0.543-0.345c0.031-0.021,0.046-0.072,0.145-0.236c-0.662-1.385-1.339-2.857-2.082-4.293
			c-0.12-0.228-0.543-0.423-0.821-0.425c-6.578-0.011-13.152,0.007-19.728,0.022c-0.076,0-0.154,0.065,0.1,0.179
			c-0.5,2.274-0.811,4.613-1.561,6.8c-0.713,2.08-2.051,3.91-4.584,3.925s-3.838-1.801-4.627-3.872
			c-0.619-1.621-1.039-3.37-1.223-5.098c-0.274-2.636,0.931-4.105,3.492-4.743c0.246-0.063,0.49-0.147,0.835-0.253
			c0-2.695,0-5.384,0-8.136c1.001,0,1.889,0,2.952,0c0,2.687,0,5.362,0,8.125c0.586,0.026,1.004,0.062,1.42,0.063
			c8.812,0.003,17.624-0.013,26.436,0.021c1.035,0.004,1.716-0.134,1.825-1.348c0.088-0.969,0.743-1.33,1.716-1.326
			c9.586,0.02,19.174,0.028,28.757-0.004c1.159-0.003,1.649,0.557,1.812,1.562c0.115,0.715,0.316,1.123,1.205,1.12
			c9.156-0.039,18.31-0.024,27.467-0.032C110.098,47.737,110.345,47.699,110.725,47.665z"/>
		<path fill-rule="evenodd" clip-rule="evenodd" fill="#232425" d="M64.919,100.778c-5.803-0.002-11.603,0-17.401-0.002
			c-3.182,0-4.646-1.461-4.646-4.655c-0.008-7.218-0.008-14.437-0.004-21.654c0-2.912,1.536-4.446,4.449-4.464
			c0.604-0.005,1.205-0.033,1.805,0.007c2.818,0.192,5.203-0.313,7.688-2.14c5.542-4.07,13.001-3.265,18.342,1.291
			c0.554,0.471,1.41,0.756,2.146,0.8c1.797,0.114,3.607,0.026,5.411,0.04c2.864,0.025,4.411,1.533,4.415,4.365
			c0.018,7.348,0.021,14.694,0.007,22.042c-0.007,2.812-1.579,4.36-4.425,4.368C76.775,100.791,70.849,100.78,64.919,100.778z
			 M64.976,94.681c5.376,0.01,9.776-4.338,9.806-9.693c0.027-5.396-4.43-9.863-9.816-9.835c-5.355,0.032-9.742,4.436-9.738,9.784
			C55.227,90.296,59.603,94.668,64.976,94.681z"/>
		<path fill-rule="evenodd" clip-rule="evenodd" fill="#232425" d="M65.07,91.345c3.523-0.018,6.374-2.893,6.367-6.42
			c-0.008-3.566-2.96-6.488-6.508-6.448c-3.492,0.04-6.385,2.976-6.37,6.46C58.574,88.53,61.452,91.364,65.07,91.345z"/>
		<path fill-rule="evenodd" clip-rule="evenodd" fill="#232425" d="M65.07,91.345c-3.618,0.02-6.496-2.814-6.511-6.408
			c-0.015-3.484,2.878-6.42,6.37-6.46c3.548-0.04,6.5,2.882,6.508,6.448C71.444,88.452,68.594,91.327,65.07,91.345z"/>
	</g>
</g>
</svg>
